HIERARCHY
ROOT Hips
{
  OFFSET 179.979 97.3047 303.174
  CHANNELS 6 Xposition Yposition Zposition Zrotation Xrotation Yrotation
  JOINT Spine
  {
    OFFSET 0.000859786 9.92346 -1.22733
    CHANNELS 3 Zrotation Xrotation Yrotation
    JOINT Spine1
    {
      OFFSET 0 11.732 0
      CHANNELS 3 Zrotation Xrotation Yrotation
      JOINT Spine2
      {
        OFFSET 0 13.4588 0
        CHANNELS 3 Zrotation Xrotation Yrotation
        JOINT Neck
        {
          OFFSET 2.54812e-05 15.0278 0.877907
          CHANNELS 3 Zrotation Xrotation Yrotation
          JOINT Head
          {
            OFFSET 0 10.3218 3.14243
            CHANNELS 3 Zrotation Xrotation Yrotation
            End Site
            {
              OFFSET 0 0 0
            }
          }
        }
        JOINT LeftShoulder
        {
          OFFSET 6.10582 9.10629 0.757062
          CHANNELS 3 Zrotation Xrotation Yrotation
          JOINT LeftArm
          {
            OFFSET 0 12.9223 0
            CHANNELS 3 Zrotation Xrotation Yrotation
            JOINT LeftForeArm
            {
              OFFSET 0 27.4047 0
              CHANNELS 3 Zrotation Xrotation Yrotation
              JOINT LeftHand
              {
                OFFSET -1.28204e-05 27.6145 0
                CHANNELS 3 Zrotation Xrotation Yrotation
                End Site
                {
                  OFFSET 0 0 0
                }
              }
            }
          }
        }
        JOINT RightShoulder
        {
          OFFSET -6.1057 9.10638 0.757076
          CHANNELS 3 Zrotation Xrotation Yrotation
          JOINT RightArm
          {
            OFFSET 0 12.9223 0
            CHANNELS 3 Zrotation Xrotation Yrotation
            JOINT RightForeArm
            {
              OFFSET 0 27.4047 0
              CHANNELS 3 Zrotation Xrotation Yrotation
              JOINT RightHand
              {
                OFFSET 1.28428e-05 27.6145 1.44975e-05
                CHANNELS 3 Zrotation Xrotation Yrotation
                End Site
                {
                  OFFSET 0 0 0
                }
              }
            }
          }
        }
      }
    }
  }
  JOINT LeftUpLeg
  {
    OFFSET 9.12387 -6.65719 -0.0554031
    CHANNELS 3 Zrotation Xrotation Yrotation
    JOINT LeftLeg
    {
      OFFSET 0 40.5994 0
      CHANNELS 3 Zrotation Xrotation Yrotation
      JOINT LeftFoot
      {
        OFFSET 0 42.099 0
        CHANNELS 3 Zrotation Xrotation Yrotation
        JOINT LeftToeBase
        {
          OFFSET 0 15.7216 0
          CHANNELS 3 Zrotation Xrotation Yrotation
          End Site
          {
            OFFSET 0 0 0
          }
        }
      }
    }
  }
  JOINT RightUpLeg
  {
    OFFSET -9.12503 -6.6556 -0.0553527
    CHANNELS 3 Zrotation Xrotation Yrotation
    JOINT RightLeg
    {
      OFFSET 0 40.5994 0
      CHANNELS 3 Zrotation Xrotation Yrotation
      JOINT RightFoot
      {
        OFFSET 0 42.099 0
        CHANNELS 3 Zrotation Xrotation Yrotation
        JOINT RightToeBase
        {
          OFFSET 0 15.7216 0
          CHANNELS 3 Zrotation Xrotation Yrotation
          End Site
          {
            OFFSET 0 0 0
          }
        }
      }
    }
  }
}
MOTION
Frames:	18
Frame Time:	0.0333333
83.3182 98.5983 360.794 -1.8147 -6.04238 -4.23113 0.443233 -4.87658 0.0301763 0.86643 4.15507 -0.0777881 0.872735 10.7496 -0.0797735 -4.89772 4.69429 -1.04573 6.54878 -9.76719 -3.81641 -89.719 -22.0784 89.5576 17.9444 -2.33563 -2.14022 10.7265 -16.9948 -0.76004 -12.295 5.00802 -13.5082 88.0808 -10.218 -90.5755 -8.8951 3.3838 3.0201 -12.1555 -19.7651 0.852721 12.1146 5.59195 -0.213498 -178.576 -5.00328 -5.12015 -3.24254 -13.663 -8.38258 31.5855 77.3563 -29.4302 -0.965272 26.367 -3.60229 -179.4 -4.30033 3.00299 3.90652 -14.0871 12.0767 -36.1074 74.7657 34.5065 0.963532 26.3682 3.55537 
83.3214 98.5982 360.8 -1.8147 -6.04238 -4.23113 0.443233 -4.87658 0.0301763 0.86643 4.15507 -0.0777881 0.872735 10.7496 -0.0797735 -4.90346 4.69226 -1.04569 6.54821 -9.76855 -3.81923 -89.7224 -22.0808 89.5564 17.9518 -2.33563 -2.12805 10.7317 -17.008 -0.760093 -12.3042 5.01394 -13.4742 88.0808 -10.2168 -90.5755 -8.89174 3.38665 3.0181 -12.1555 -19.7651 0.852721 12.1131 5.60607 -0.196977 -178.579 -5.01262 -5.1182 -3.24287 -13.6629 -8.38419 31.5986 77.3575 -29.4425 -0.965272 26.367 -3.60229 -179.403 -4.33711 3.00497 3.89938 -14.0547 12.075 -36.1113 74.7678 34.5135 0.963532 26.3682 3.55537 
83.3391 98.598 360.834 -1.8147 -6.04238 -4.23113 0.443233 -4.87658 0.0301763 0.866053 4.15507 -0.0725571 0.87234 10.7496 -0.0743274 -4.93289 4.6787 -1.04551 6.5455 -9.77675 -3.832 -89.7409 -22.0927 89.5497 17.9897 -2.33559 -2.05817 10.7576 -17.0743 -0.760363 -12.3567 5.05237 -13.2798 88.0869 -10.2086 -90.5739 -8.87113 3.4045 3.00695 -12.1608 -19.7651 0.852721 12.1045 5.6818 -0.107894 -178.595 -5.02809 -5.10892 -3.24587 -13.6691 -8.39448 31.6714 77.3644 -29.5111 -0.965272 26.367 -3.60229 -179.419 -4.29678 3.01288 3.89775 -14.1204 12.0779 -36.1117 74.7845 34.5309 0.963532 26.3682 3.55537 
83.3573 98.5978 360.869 -1.8147 -6.04238 -4.23113 0.443233 -4.87658 0.0301763 0.865597 4.15507 -0.0662355 0.871864 10.7496 -0.067762 -4.95724 4.66088 -1.04914 6.53797 -9.78048 -3.84283 -89.7569 -22.1004 89.5438 18.0236 -2.33553 -2.03629 10.7927 -17.1167 -0.760536 -12.4133 5.0591 -13.0841 88.094 -10.1995 -90.5722 -8.84774 3.42353 2.99648 -12.1678 -19.7651 0.852721 12.0872 5.73963 -0.00258853 -178.611 -5.02916 -5.10131 -3.24526 -13.6927 -8.40596 31.7478 77.3722 -29.5831 -0.965272 26.367 -3.60229 -179.434 -4.38713 3.01513 3.90077 -14.0576 12.0752 -36.1179 74.8013 34.5553 0.963532 26.3682 3.55537 
83.3756 98.5976 360.904 -1.8147 -6.04238 -4.23113 0.443233 -4.87658 0.0301763 0.864999 4.15507 -0.0579432 0.871238 10.7496 -0.0591442 -4.97403 4.64037 -1.05471 6.52815 -9.77288 -3.85286 -89.7672 -22.1 89.5404 18.0418 -2.33513 -2.06547 10.8489 -17.1468 -0.765033 -12.4298 5.01548 -12.9646 88.1004 -10.1911 -90.5712 -8.82304 3.43942 2.98777 -12.1786 -19.7677 0.852735 12.0644 5.75345 0.142536 -178.627 -5.04556 -5.09614 -3.24627 -13.7028 -8.41561 31.8233 77.3809 -29.6544 -0.965272 26.367 -3.60229 -179.448 -4.38454 3.00936 3.90044 -14.087 12.0765 -36.1301 74.8158 34.587 0.963532 26.3682 3.55537 
83.3937 98.5974 360.938 -1.8147 -6.04238 -4.23113 0.443059 -4.87658 0.0348981 0.864323 4.15507 -0.0485531 0.87209 10.7496 -0.0495851 -4.98075 4.61956 -1.06107 6.51196 -9.75862 -3.85929 -89.7717 -22.0966 89.5391 18.0469 -2.32533 -2.12509 10.9276 -17.1943 -0.771465 -12.3901 4.99788 -12.8952 88.1062 -10.1837 -90.5707 -8.79823 3.45219 2.98426 -12.1926 -19.7648 0.852719 12.0388 5.74357 0.290165 -178.642 -5.0615 -5.09447 -3.24698 -13.7134 -8.42319 31.8881 77.3901 -29.7108 -0.965272 26.367 -3.60229 -179.461 -4.33126 3.00206 3.89836 -14.1667 12.0801 -36.1423 74.8293 34.6198 0.963532 26.3682 3.55537 
83.4112 98.5972 360.971 -1.8147 -6.04238 -4.23113 0.442879 -4.87658 0.0398126 0.863621 4.15507 -0.0388164 0.87234 10.7496 -0.0395606 -4.97404 4.59984 -1.06767 6.48402 -9.74296 -3.85932 -89.7732 -22.0952 89.5391 18.0451 -2.31051 -2.18711 11.0269 -17.2573 -0.775185 -12.3439 5.00916 -12.8742 88.11 -10.1788 -90.5708 -8.77655 3.46143 2.98942 -12.2075 -19.7543 0.852663 12.0104 5.72725 0.408572 -178.655 -5.05801 -5.09538 -3.24624 -13.7431 -8.42871 31.9432 77.3997 -29.7571 -0.965272 26.367 -3.60229 -179.471 -4.36306 2.99673 3.89546 -14.1611 12.0797 -36.1523 74.8423 34.6504 0.963532 26.3682 3.55537 
83.428 98.597 361.002 -1.8147 -6.04238 -4.23113 0.443942 -4.87658 0.044884 0.865723 4.15507 -0.0290269 0.872327 10.7496 -0.0295148 -4.96055 4.57922 -1.07213 6.45147 -9.72341 -3.85414 -89.7735 -22.0997 89.5395 18.0433 -2.29738 -2.24012 11.1338 -17.3307 -0.779452 -12.3015 5.02921 -12.8353 88.111 -10.1768 -90.5713 -8.75862 3.46568 3.00461 -12.2222 -19.7347 0.852558 11.9786 5.70482 0.491804 -178.666 -5.06068 -5.10099 -3.24616 -13.7658 -8.42974 31.9828 77.4106 -29.7875 -0.965272 26.367 -3.60229 -179.479 -4.34918 2.99483 3.88932 -14.1993 12.0812 -36.1589 74.854 34.6772 0.963532 26.3682 3.55537 
83.4441 98.5969 361.03 -1.8142 -6.04242 -4.2264 0.444543 -4.87658 0.0497338 0.867699 4.15507 -0.0195371 0.872133 10.7496 -0.0197606 -4.94922 4.55222 -1.07271 6.42293 -9.69361 -3.84671 -89.7749 -22.1163 89.5397 18.0539 -2.28646 -2.28257 11.2331 -17.4034 -0.783259 -12.2705 5.00177 -12.7214 88.1105 -10.1788 -90.5719 -8.74871 3.46576 3.01587 -12.227 -19.7135 0.852445 11.9453 5.68112 0.553993 -178.676 -5.07875 -5.11188 -3.24259 -13.7695 -8.42454 32.0073 77.4208 -29.8026 -0.965272 26.367 -3.60229 -179.486 -4.399 2.99756 3.88407 -14.171 12.0797 -36.1613 74.8644 34.6988 0.963532 26.3682 3.55537 
83.4594 98.5966 361.057 -1.81296 -6.03727 -4.21823 0.445051 -4.87658 0.0542294 0.869615 4.15507 -0.0107155 0.871845 10.7496 -0.0106651 -4.93964 4.51703 -1.06899 6.39773 -9.65144 -3.8363 -89.7797 -22.1444 89.5386 18.0773 -2.27879 -2.30557 11.3182 -17.4556 -0.786567 -12.2427 4.97853 -12.7062 88.1089 -10.1882 -90.5723 -8.74648 3.46347 3.02111 -12.2228 -19.6938 0.85234 11.9171 5.63955 0.571394 -178.684 -5.07772 -5.12838 -3.24027 -13.7871 -8.41388 32.0152 77.43 -29.7995 -0.965272 26.367 -3.60229 -179.492 -4.39824 3.00724 3.87576 -14.1893 12.0803 -36.156 74.8739 34.7115 0.963532 26.3682 3.55537 
83.474 98.5963 361.082 -1.81295 -6.03036 -4.20532 0.445559 -4.87658 0.0562244 0.871309 4.15507 -0.00299823 0.871555 10.7496 -0.00270116 -4.93326 4.47373 -1.06248 6.37665 -9.59746 -3.82511 -89.7856 -22.1765 89.537 18.1054 -2.27468 -2.30684 11.3868 -17.4912 -0.789029 -12.2198 4.9878 -12.7888 88.1052 -10.2039 -90.5723 -8.75189 3.4582 3.02509 -12.217 -19.6763 0.852247 11.9068 5.57321 0.530625 -178.692 -5.07869 -5.14775 -3.23718 -13.7995 -8.39805 32.0007 77.4389 -29.7737 -0.965272 26.367 -3.60229 -179.497 -4.41396 3.02583 3.86666 -14.1869 12.074 -36.1422 74.8822 34.7142 0.963532 26.3682 3.55537 
83.4877 98.596 361.104 -1.81323 -6.02112 -4.18562 0.446017 -4.87658 0.0573417 0.872491 4.15507 0.00250363 0.871406 10.7496 0.00295491 -4.93486 4.42622 -1.05278 6.36518 -9.53636 -3.81526 -89.7929 -22.2057 89.5346 18.1292 -2.27476 -2.28628 11.437 -17.5158 -0.790583 -12.2405 5.01093 -12.9105 88.0988 -10.2247 -90.5702 -8.76463 3.45076 3.04535 -12.2157 -19.6672 0.852199 11.9367 5.53522 0.439892 -178.697 -5.07764 -5.16314 -3.23329 -13.8022 -8.37973 31.9695 77.4446 -29.7313 -0.965272 26.367 -3.60229 -179.498 -4.45354 3.05648 3.8574 -14.1554 12.0627 -36.1183 74.8892 34.7049 0.963532 26.3682 3.55537 
83.5003 98.5956 361.124 -1.81315 -6.00931 -4.15908 0.446406 -4.87658 0.0584437 0.873326 4.15507 0.00535987 0.871647 10.7496 0.00371543 -4.94025 4.37971 -1.04109 6.36105 -9.47352 -3.80598 -89.7998 -22.2247 89.5319 18.1345 -2.27785 -2.25866 11.4793 -17.5312 -0.791721 -12.3067 5.04797 -13.0085 88.091 -10.2491 -90.5679 -8.77751 3.43997 3.06895 -12.2186 -19.6767 0.852249 11.9767 5.55553 0.290955 -178.699 -5.06849 -5.16866 -3.23157 -13.8088 -8.36403 31.9396 77.449 -29.6907 -0.965272 26.367 -3.60229 -179.499 -4.44127 3.10333 3.84546 -14.1692 12.0491 -36.08 74.8956 34.6784 0.963532 26.3682 3.55537 
83.5122 98.5953 361.142 -1.81295 -5.99603 -4.12918 0.446736 -4.87658 0.0595138 0.873914 4.15507 0.00653898 0.872135 10.7496 0.00234577 -4.94926 4.33764 -1.02713 6.36394 -9.41269 -3.79691 -89.8066 -22.235 89.5288 18.1212 -2.28585 -2.23005 11.5187 -17.5392 -0.792569 -12.3759 5.1066 -13.0024 88.0826 -10.2753 -90.5653 -8.78475 3.40813 3.00773 -12.1994 -19.6791 0.852262 11.9839 5.60451 0.225859 -178.699 -5.06557 -5.15864 -3.23086 -13.8028 -8.35479 31.9281 77.4511 -29.6698 -0.965272 26.367 -3.60229 -179.5 -4.39605 3.16864 3.83162 -14.2092 12.0285 -36.0157 74.9008 34.6216 0.963532 26.3682 3.55537 
83.5232 98.5948 361.157 -1.81296 -5.98225 -4.09591 0.447022 -4.87658 0.0605355 0.874385 4.15507 0.00632606 0.87285 10.7496 -6.10105e-05 -4.96271 4.30243 -1.01073 6.37388 -9.3566 -3.78816 -89.8131 -22.2463 89.5258 18.1048 -2.29866 -2.19386 11.5337 -17.5463 -0.793273 -12.4083 5.13915 -12.8723 88.074 -10.3023 -90.5625 -8.78404 3.37035 2.93644 -12.1873 -19.6886 0.852312 11.9894 5.67483 0.193236 -178.699 -5.07211 -5.13367 -3.23256 -13.7831 -8.35169 31.9388 77.4529 -29.6718 -0.965272 26.367 -3.60229 -179.5 -4.47583 3.2384 3.82298 -14.1211 11.999 -35.9481 74.9042 34.5594 0.963532 26.3682 3.55537 
83.5331 98.5944 361.171 -1.81295 -5.9678 -4.0583 0.447273 -4.87658 0.061492 0.874969 4.15507 0.00361409 0.87377 10.7496 -0.00241188 -4.98103 4.2768 -0.992069 6.39072 -9.30837 -3.78004 -89.8185 -22.2609 89.5231 18.0909 -2.31634 -2.14505 11.5213 -17.5569 -0.793968 -12.4161 5.11388 -12.6611 88.0655 -10.3293 -90.56 -8.77413 3.32953 2.88187 -12.1876 -19.7218 0.852489 12.0167 5.81621 0.2463 -178.7 -5.06493 -5.09571 -3.23775 -13.7741 -8.35566 31.975 77.4569 -29.6999 -0.965272 26.367 -3.60229 -179.501 -4.42113 3.29994 3.8124 -14.1676 11.9868 -35.9011 74.9065 34.5186 0.963532 26.3682 3.55537 
83.5432 98.5939 361.185 -1.81295 -5.95298 -4.01267 0.447503 -4.87658 0.0623669 0.875945 4.15507 -0.00340896 0.874876 10.7496 -0.00361379 -5.00444 4.25832 -0.971938 6.41376 -9.26747 -3.77318 -89.8223 -22.2822 89.5212 18.0826 -2.33655 -2.0903 11.4956 -17.5747 -0.79479 -12.3933 5.03262 -12.4617 88.0571 -10.358 -90.5571 -8.76029 3.28885 2.85328 -12.1934 -19.754 0.852661 12.0292 5.89894 0.386849 -178.7 -5.04994 -5.04264 -3.24301 -13.7714 -8.36494 32.0268 77.4606 -29.7448 -0.965272 26.367 -3.60229 -179.506 -4.38552 3.34055 3.80906 -14.1954 11.9915 -35.8962 74.9055 34.5227 0.963532 26.3682 3.55537 
83.5529 98.5934 361.2 -1.81295 -5.93905 -3.97063 0.447722 -4.87658 0.0631434 0.877223 4.15507 -0.0114176 0.876215 10.7496 -0.00350351 -5.03299 4.243 -0.950771 6.44236 -9.22817 -3.76811 -89.8232 -22.3107 89.5206 18.0811 -2.3588 -2.04795 11.4731 -17.5976 -0.795846 -12.3433 4.94327 -12.3274 88.0485 -10.387 -90.5542 -8.74434 3.24791 2.87948 -12.2031 -19.7739 0.852768 12.02 5.81237 0.557127 -178.7 -5.04643 -4.98908 -3.25068 -13.7591 -8.37632 32.065 77.4574 -29.778 -0.965272 26.367 -3.60229 -179.502 -4.48668 3.37385 3.8091 -14.0889 11.989 -35.8978 74.9047 34.5343 0.963532 26.3682 3.55537 
